<svg width="24" height="24" viewBox="0 0 24 24" fill="none" xmlns="http://www.w3.org/2000/svg">
<g id="Frame 293">
<path id="Union" fill-rule="evenodd" clip-rule="evenodd" d="M15.3584 1.55566C15.3584 1.00338 14.9107 0.555665 14.3584 0.555665L10.0801 0.555664C9.52785 0.555664 9.08013 1.00338 9.08013 1.55567L9.08013 11.7101C9.08013 12.2624 8.63242 12.7101 8.08013 12.7101L5.44623 12.7101C4.60314 12.7101 4.13842 13.6893 4.67154 14.3424L11.4628 22.6624C11.8629 23.1527 12.612 23.1527 13.0122 22.6624L19.8034 14.3424C20.3365 13.6893 19.8718 12.7101 19.0287 12.7101L16.3584 12.7101C15.8061 12.7101 15.3584 12.2624 15.3584 11.7101L15.3584 1.55566Z" fill="#4095A2"/>
</g>
</svg>
