<svg width="24" height="25" viewBox="0 0 24 25" fill="none" xmlns="http://www.w3.org/2000/svg">
<g id="Frame 293" clip-path="url(#clip0_92_6794)">
<path id="Union" fill-rule="evenodd" clip-rule="evenodd" d="M1.55566 9.14161C1.00338 9.14161 0.555664 9.58933 0.555664 10.1416L0.555664 14.4199C0.555664 14.9722 1.00338 15.4199 1.55567 15.4199L11.7101 15.4199C12.2624 15.4199 12.7101 15.8676 12.7101 16.4199L12.7101 19.0538C12.7101 19.8969 13.6893 20.3616 14.3424 19.8285L22.6624 13.0372C23.1527 12.6371 23.1527 11.888 22.6624 11.4878L14.3424 4.6966C13.6893 4.16348 12.7101 4.6282 12.7101 5.47129L12.7101 8.14161C12.7101 8.6939 12.2624 9.14161 11.7101 9.14161L1.55566 9.14161Z" fill="#4095A2"/>
</g>
<defs>
<clipPath id="clip0_92_6794">
<rect width="24" height="24" fill="white" transform="translate(24 24.5) rotate(180)"/>
</clipPath>
</defs>
</svg>
